<svg xmlns="http://www.w3.org/2000/svg" viewBox="0 0 256 256" fill="currentColor">
  <path d="M128,80a48,48,0,1,0,48,48A48.05,48.05,0,0,0,128,80Zm0,80a32,32,0,1,1,32-32A32,32,0,0,1,128,160Z"/>
  <path d="M216,130.16q.06-1.08.06-2.16t-.06-2.16l14.92-18.64a8,8,0,0,0,1.48-7.06,107.6,107.6,0,0,0-10.88-26.25,8,8,0,0,0-6-3.93l-23.72-2.64q-1.48-1.56-3.06-3.05L191.39,40.5a8,8,0,0,0-3.93-6,107.29,107.29,0,0,0-26.25-10.87,8,8,0,0,0-7.06,1.49L135.84,40Q134.92,40,128,40t-7.84.05L101.51,25.11a8,8,0,0,0-7.06-1.48A107.6,107.6,0,0,0,68.2,34.51a8,8,0,0,0-3.93,6L61.63,64.27q-1.56,1.49-3.05,3.06L35.86,70a8,8,0,0,0-6,3.93,107.71,107.71,0,0,0-10.87,26.25,8,8,0,0,0,1.49,7.06L40,125.84Q40,126.92,40,128t.05,2.16L25.11,148.49a8,8,0,0,0-1.48,7.06,107.6,107.6,0,0,0,10.88,26.25,8,8,0,0,0,6,3.93l23.72,2.64q1.49,1.56,3.06,3.05L70,215.5a8,8,0,0,0,3.93,6,107.29,107.29,0,0,0,26.25,10.87,8,8,0,0,0,7.06-1.49L125.84,216q.92.06,2.16.06t2.16-.06l18.33,14.92a8,8,0,0,0,7.06,1.48,107.6,107.6,0,0,0,26.25-10.88,8,8,0,0,0,3.93-6l2.64-23.72q1.56-1.48,3.05-3.06L215.5,186a8,8,0,0,0,6-3.93,107.71,107.71,0,0,0,10.87-26.25,8,8,0,0,0-1.49-7.06ZM128,168a40,40,0,1,1,40-40A40,40,0,0,1,128,168Z"/>
</svg> 